
          <svg xmlns="http://www.w3.org/2000/svg" xmlns:cc="http://creativecommons.org/ns#" xmlns:rdf="http://www.w3.org/1999/02/22-rdf-syntax-ns#" version="1.1" width="1445.8875732421875" height="430.60003662109375">
          <text x='20' y='30' fill='blue'>VDEPS Statement for Classic Build and Yocto Build</text>
            <defs>
              <style type="text/css">svg {
          background-color: #fff; }

        .root text,
        .root tspan {
          font: 12px Arial; }

        .root path {
          fill-opacity: 0;
          stroke-width: 2px;
          stroke: #000; }

        .root circle {
          fill: #6b6659;
          stroke-width: 2px;
          stroke: #000; }

        .anchor text, .any-character text {
          fill: #fff; }

        .anchor rect, .any-character rect {
          fill: #6b6659; }

        .escape text, .charset-escape text, .literal text {
          fill: #000; }

        .escape rect, .charset-escape rect {
          fill: #bada55; }

        .literal rect {
          fill: #dae9e5; }

        .charset .charset-box {
          fill: #cbcbba; }

        .subexp .subexp-label tspan,
        .charset .charset-label tspan,
        .match-fragment .repeat-label tspan {
          font-size: 10px; }

        .repeat-label {
          cursor: help; }

        .subexp .subexp-label tspan,
        .charset .charset-label tspan {
          dominant-baseline: text-after-edge; }

        .subexp .subexp-box {
          stroke: #908c83;
          stroke-dasharray: 6,2;
          stroke-width: 2px;
          fill-opacity: 0; }

        .quote {
          fill: #908c83; }
        </style>
            </defs>
            <metadata>
              <rdf:rdf>
                <cc:license rdf:about="http://creativecommons.org/licenses/by/3.0/">
                  <cc:permits rdf:resource="http://creativecommons.org/ns#Reproduction"></cc:permits>
                  <cc:permits rdf:resource="http://creativecommons.org/ns#Distribution"></cc:permits>
                  <cc:requires rdf:resource="http://creativecommons.org/ns#Notice"></cc:requires>
                  <cc:requires rdf:resource="http://creativecommons.org/ns#Attribution"></cc:requires>
                  <cc:permits rdf:resource="http://creativecommons.org/ns#DerivativeWorks"></cc:permits>
                </cc:license>
              </rdf:rdf>
            </metadata>
          <desc>Created with Snap</desc><g class="root" transform="matrix(1,0,0,1,15,10)"><g class="regexp match" transform="matrix(1,0,0,1,10,0)"><path d="M65.36250305175781,216.50000019073485H90.3625M165.0578125,216.50000019073485H190.0578M212.0578,216.50000019073485H237.0578M311.7531125,216.50000019073485H356.7531M393.5656,216.50000019073485H443.5656M518.2609125,216.50000019073485H543.2609M565.2609,216.50000019073485H590.2609M664.9562125,216.50000019073485H709.9563M756.7688,216.50000038146973H806.7688M881.4641125,216.50000019073485H906.4641M928.4641,216.50000019073485H963.4641M1048.1594125000001,216.5H1083.1594M1105.1594,216.50000019073485H1130.1594M1204.8547125,216.50000019073485H1229.8547M1251.1921996185304,216.50000019073485H1286.1922"></path><g class="match-fragment literal" transform="matrix(1,0,0,1,0,204.7)"><g class="label"><rect width="65.36249923706055" height="23.600000381469727" rx="3" ry="3"></rect><text x="0" y="0" transform="matrix(1,0,0,1,5,16.8)"><tspan class="quote">“</tspan><tspan>#VDEPS</tspan><tspan class="quote">”</tspan></text></g></g><g class="match-fragment" transform="matrix(1,0,0,1,75.3625,194.7)"><path d="M0,21.800000190734863q10,0 10,-10v-1.8000001907348633q0,-10 10,-10h64.6953125q10,0 10,10v1.8000001907348633q0,10 10,10M15,21.800000190734863q-10,0 -10,10v1.8000001907348633q0,10 10,10h74.6953125q10,0 10,-10v-1.8000001907348633q0,-10 -10,-10M99.6953125,36.80000019073486l5,-5m-5,5l-5,-5"></path><g class="escape" transform="matrix(1,0,0,1,15,10)"><g class="label"><rect width="74.6953125" height="23.600000381469727" rx="3" ry="3"></rect><text x="0" y="0" transform="matrix(1,0,0,1,5,16.8)"><tspan>white space</tspan></text></g></g></g><g class="match-fragment literal" transform="matrix(1,0,0,1,190.0578,204.7)"><g class="label"><rect width="22" height="23.600000381469727" rx="3" ry="3"></rect><text x="0" y="0" transform="matrix(1,0,0,1,5,16.8)"><tspan class="quote">“</tspan><tspan>(</tspan><tspan class="quote">”</tspan></text></g></g><g class="match-fragment" transform="matrix(1,0,0,1,222.0578,194.7)"><path d="M0,21.800000190734863q10,0 10,-10v-1.8000001907348633q0,-10 10,-10h64.6953125q10,0 10,10v1.8000001907348633q0,10 10,10M15,21.800000190734863q-10,0 -10,10v1.8000001907348633q0,10 10,10h74.6953125q10,0 10,-10v-1.8000001907348633q0,-10 -10,-10M99.6953125,36.80000019073486l5,-5m-5,5l-5,-5"></path><g class="escape" transform="matrix(1,0,0,1,15,10)"><g class="label"><rect width="74.6953125" height="23.600000381469727" rx="3" ry="3"></rect><text x="0" y="0" transform="matrix(1,0,0,1,5,16.8)"><tspan>white space</tspan></text></g></g></g><g class="match-fragment subexp" transform="matrix(1,0,0,1,336.7531,183.5)"><rect rx="3" ry="3" class="subexp-box" transform="matrix(1,0,0,1,0,11.2)" width="81.8125" height="53.599998474121094"></rect><text x="0" y="0" class="subexp-label" transform="matrix(1,0,0,1,0,11.2)"><tspan>group #1: Virtual Type (menuconfig config menuchoice choice)</tspan></text><g class="regexp match match-fragment" transform="matrix(1,0,0,1,10,21.2)"><path d="M10,11.800000190734863q-10,0 -10,10v1.8000001907348633q0,10 10,10h36.8125q10,0 10,-10v-1.8000001907348633q0,-10 -10,-10M56.8125,26.800000190734863l5,-5m-5,5l-5,-5"></path><g class="escape" transform="matrix(1,0,0,1,10,0)"><g class="label"><rect width="36.8125" height="23.600000381469727" rx="3" ry="3"></rect><text x="0" y="0" transform="matrix(1,0,0,1,5,16.8)"><tspan>word</tspan></text></g></g></g></g><g class="match-fragment" transform="matrix(1,0,0,1,428.5656,194.7)"><path d="M0,21.800000190734863q10,0 10,-10v-1.8000001907348633q0,-10 10,-10h64.6953125q10,0 10,10v1.8000001907348633q0,10 10,10M15,21.800000190734863q-10,0 -10,10v1.8000001907348633q0,10 10,10h74.6953125q10,0 10,-10v-1.8000001907348633q0,-10 -10,-10M99.6953125,36.80000019073486l5,-5m-5,5l-5,-5"></path><g class="escape" transform="matrix(1,0,0,1,15,10)"><g class="label"><rect width="74.6953125" height="23.600000381469727" rx="3" ry="3"></rect><text x="0" y="0" transform="matrix(1,0,0,1,5,16.8)"><tspan>white space</tspan></text></g></g></g><g class="match-fragment literal" transform="matrix(1,0,0,1,543.2609,204.7)"><g class="label"><rect width="22" height="23.600000381469727" rx="3" ry="3"></rect><text x="0" y="0" transform="matrix(1,0,0,1,5,16.8)"><tspan class="quote">“</tspan><tspan>)</tspan><tspan class="quote">”</tspan></text></g></g><g class="match-fragment" transform="matrix(1,0,0,1,575.2609,194.7)"><path d="M0,21.800000190734863q10,0 10,-10v-1.8000001907348633q0,-10 10,-10h64.6953125q10,0 10,10v1.8000001907348633q0,10 10,10M15,21.800000190734863q-10,0 -10,10v1.8000001907348633q0,10 10,10h74.6953125q10,0 10,-10v-1.8000001907348633q0,-10 -10,-10M99.6953125,36.80000019073486l5,-5m-5,5l-5,-5"></path><g class="escape" transform="matrix(1,0,0,1,15,10)"><g class="label"><rect width="74.6953125" height="23.600000381469727" rx="3" ry="3"></rect><text x="0" y="0" transform="matrix(1,0,0,1,5,16.8)"><tspan>white space</tspan></text></g></g></g><g class="match-fragment subexp" transform="matrix(1,0,0,1,689.9563,153)"><rect rx="3" ry="3" class="subexp-box" transform="matrix(1,0,0,1,0,11.2)" width="91.8125" height="103.4000015258789"></rect><text x="0" y="0" class="subexp-label" transform="matrix(1,0,0,1,0,11.2)"><tspan>group #2: Virtual Package Name</tspan></text><g class="regexp match match-fragment" transform="matrix(1,0,0,1,10,21.2)"><path d="M10,42.30000038146973q-10,0 -10,10v21.10000131130218q0,10 10,10h46.8125q10,0 10,-10v-21.10000131130218q0,-10 -10,-10M66.8125,57.30000038146973l5,-5m-5,5l-5,-5"></path><g class="charset" transform="matrix(1,0,0,1,10,0)"><rect rx="3" ry="3" class="charset-box" transform="matrix(1,0,0,1,0,11.2)" width="46.8125" height="62.20000076293945"></rect><text x="0" y="0" class="charset-label" transform="matrix(1,0,0,1,0,11.2)"><tspan>One of:</tspan></text><g transform="matrix(1,0,0,1,5,16.2)"><g class="charset-escape" transform="matrix(1,0,0,1,0,0)"><g class="label"><rect width="36.8125" height="23.600000381469727" rx="3" ry="3"></rect><text x="0" y="0" transform="matrix(1,0,0,1,5,16.8)"><tspan>word</tspan></text></g></g><g class="literal" transform="matrix(1,0,0,1,7.4063,28.6)"><g class="label"><rect width="22" height="23.600000381469727" rx="3" ry="3"></rect><text x="0" y="0" transform="matrix(1,0,0,1,5,16.8)"><tspan class="quote">“</tspan><tspan>-</tspan><tspan class="quote">”</tspan></text></g></g></g></g></g></g><g class="match-fragment" transform="matrix(1,0,0,1,791.7688,194.7)"><path d="M0,21.800000190734863q10,0 10,-10v-1.8000001907348633q0,-10 10,-10h64.6953125q10,0 10,10v1.8000001907348633q0,10 10,10M15,21.800000190734863q-10,0 -10,10v1.8000001907348633q0,10 10,10h74.6953125q10,0 10,-10v-1.8000001907348633q0,-10 -10,-10M99.6953125,36.80000019073486l5,-5m-5,5l-5,-5"></path><g class="escape" transform="matrix(1,0,0,1,15,10)"><g class="label"><rect width="74.6953125" height="23.600000381469727" rx="3" ry="3"></rect><text x="0" y="0" transform="matrix(1,0,0,1,5,16.8)"><tspan>white space</tspan></text></g></g></g><g class="match-fragment literal" transform="matrix(1,0,0,1,906.4641,204.7)"><g class="label"><rect width="22" height="23.600000381469727" rx="3" ry="3"></rect><text x="0" y="0" transform="matrix(1,0,0,1,5,16.8)"><tspan class="quote">“</tspan><tspan>(</tspan><tspan class="quote">”</tspan></text></g></g><g class="match-fragment subexp" transform="matrix(1,0,0,1,938.4641,100.1)"><rect rx="3" ry="3" class="subexp-box" transform="matrix(1,0,0,1,0,11.2)" width="134.6953125" height="199.1999969482422"></rect><text x="0" y="0" class="subexp-label" transform="matrix(1,0,0,1,0,11.2)"><tspan>group #3: Other Elements</tspan></text><g class="regexp match match-fragment" transform="matrix(1,0,0,1,10,21.2)"><path d="M0,95.2q10,0 10,-10v-75.199999833107q0,-10 10,-10h74.6953125q10,0 10,10v75.199999833107q0,10 10,10M15,95.2q-10,0 -10,10v63.9999971151352q0,10 10,10h84.6953125q10,0 10,-10v-63.9999971151352q0,-10 -10,-10M109.6953125,110.2l5,-5m-5,5l-5,-5"></path><g class="charset" transform="matrix(1,0,0,1,15,10)"><rect rx="3" ry="3" class="charset-box" transform="matrix(1,0,0,1,0,11.2)" width="84.6953125" height="148"></rect><text x="0" y="0" class="charset-label" transform="matrix(1,0,0,1,0,11.2)"><tspan>One of:</tspan></text><g transform="matrix(1,0,0,1,5,16.2)"><g class="charset-escape" transform="matrix(1,0,0,1,0,0)"><g class="label"><rect width="74.6953125" height="23.600000381469727" rx="3" ry="3"></rect><text x="0" y="0" transform="matrix(1,0,0,1,5,16.8)"><tspan>white space</tspan></text></g></g><g class="charset-escape" transform="matrix(1,0,0,1,18.9414,28.6)"><g class="label"><rect width="36.8125" height="23.600000381469727" rx="3" ry="3"></rect><text x="0" y="0" transform="matrix(1,0,0,1,5,16.8)"><tspan>word</tspan></text></g></g><g class="literal" transform="matrix(1,0,0,1,26.3477,57.2)"><g class="label"><rect width="22" height="23.600000381469727" rx="3" ry="3"></rect><text x="0" y="0" transform="matrix(1,0,0,1,5,16.8)"><tspan class="quote">“</tspan><tspan>-</tspan><tspan class="quote">”</tspan></text></g></g><g class="literal" transform="matrix(1,0,0,1,26.6789,85.8)"><g class="label"><rect width="21.337499618530273" height="23.600000381469727" rx="3" ry="3"></rect><text x="0" y="0" transform="matrix(1,0,0,1,5,16.8)"><tspan class="quote">“</tspan><tspan>.</tspan><tspan class="quote">”</tspan></text></g></g><g class="literal" transform="matrix(1,0,0,1,26.6789,114.4)"><g class="label"><rect width="21.337499618530273" height="23.600000381469727" rx="3" ry="3"></rect><text x="0" y="0" transform="matrix(1,0,0,1,5,16.8)"><tspan class="quote">“</tspan><tspan>/</tspan><tspan class="quote">”</tspan></text></g></g></g></g></g></g><g class="match-fragment literal" transform="matrix(1,0,0,1,1083.1594,204.7)"><g class="label"><rect width="22" height="23.600000381469727" rx="3" ry="3"></rect><text x="0" y="0" transform="matrix(1,0,0,1,5,16.8)"><tspan class="quote">“</tspan><tspan>)</tspan><tspan class="quote">”</tspan></text></g></g><g class="match-fragment" transform="matrix(1,0,0,1,1115.1594,194.7)"><path d="M0,21.800000190734863q10,0 10,-10v-1.8000001907348633q0,-10 10,-10h64.6953125q10,0 10,10v1.8000001907348633q0,10 10,10M15,21.800000190734863q-10,0 -10,10v1.8000001907348633q0,10 10,10h74.6953125q10,0 10,-10v-1.8000001907348633q0,-10 -10,-10M99.6953125,36.80000019073486l5,-5m-5,5l-5,-5"></path><g class="escape" transform="matrix(1,0,0,1,15,10)"><g class="label"><rect width="74.6953125" height="23.600000381469727" rx="3" ry="3"></rect><text x="0" y="0" transform="matrix(1,0,0,1,5,16.8)"><tspan>white space</tspan></text></g></g></g><g class="match-fragment literal" transform="matrix(1,0,0,1,1229.8547,204.7)"><g class="label"><rect width="21.337499618530273" height="23.600000381469727" rx="3" ry="3"></rect><text x="0" y="0" transform="matrix(1,0,0,1,5,16.8)"><tspan class="quote">“</tspan><tspan>:</tspan><tspan class="quote">”</tspan></text></g></g><g class="match-fragment subexp" transform="matrix(1,0,0,1,1261.1922,0)"><rect rx="3" ry="3" class="subexp-box" transform="matrix(1,0,0,1,0,11.2)" width="134.6953125" height="399.4000244140625"></rect><text x="0" y="0" class="subexp-label" transform="matrix(1,0,0,1,0,11.2)"><tspan>group #4: Depend Names</tspan></text><g class="regexp match match-fragment" transform="matrix(1,0,0,1,10,21.2)"><path d="M0,195.3000061035156q10,0 10,-10v-175.3000059366226q0,-10 10,-10h74.6953125q10,0 10,10v175.3000059366226q0,10 10,10M15,195.3000061035156q-10,0 -10,10v164.1000184774399q0,10 10,10h84.6953125q10,0 10,-10v-164.1000184774399q0,-10 -10,-10M109.6953125,210.3000061035156l5,-5m-5,5l-5,-5"></path><g class="charset" transform="matrix(1,0,0,1,15,10)"><rect rx="3" ry="3" class="charset-box" transform="matrix(1,0,0,1,0,11.2)" width="84.6953125" height="348.20001220703125"></rect><text x="0" y="0" class="charset-label" transform="matrix(1,0,0,1,0,11.2)"><tspan>One of:</tspan></text><g transform="matrix(1,0,0,1,5,16.2)"><g class="charset-escape" transform="matrix(1,0,0,1,0,0)"><g class="label"><rect width="74.6953125" height="23.600000381469727" rx="3" ry="3"></rect><text x="0" y="0" transform="matrix(1,0,0,1,5,16.8)"><tspan>white space</tspan></text></g></g><g class="charset-escape" transform="matrix(1,0,0,1,18.9414,28.6)"><g class="label"><rect width="36.8125" height="23.600000381469727" rx="3" ry="3"></rect><text x="0" y="0" transform="matrix(1,0,0,1,5,16.8)"><tspan>word</tspan></text></g></g><g class="literal" transform="matrix(1,0,0,1,26.6789,57.2)"><g class="label"><rect width="21.337499618530273" height="23.600000381469727" rx="3" ry="3"></rect><text x="0" y="0" transform="matrix(1,0,0,1,5,16.8)"><tspan class="quote">“</tspan><tspan>\</tspan><tspan class="quote">”</tspan></text></g></g><g class="literal" transform="matrix(1,0,0,1,26.7852,85.8)"><g class="label"><rect width="21.125" height="23.600000381469727" rx="3" ry="3"></rect><text x="0" y="0" transform="matrix(1,0,0,1,5,16.8)"><tspan class="quote">“</tspan><tspan>|</tspan><tspan class="quote">”</tspan></text></g></g><g class="literal" transform="matrix(1,0,0,1,26.3477,114.4)"><g class="label"><rect width="22" height="23.600000381469727" rx="3" ry="3"></rect><text x="0" y="0" transform="matrix(1,0,0,1,5,16.8)"><tspan class="quote">“</tspan><tspan>-</tspan><tspan class="quote">”</tspan></text></g></g><g class="literal" transform="matrix(1,0,0,1,26.6789,143)"><g class="label"><rect width="21.337499618530273" height="23.600000381469727" rx="3" ry="3"></rect><text x="0" y="0" transform="matrix(1,0,0,1,5,16.8)"><tspan class="quote">“</tspan><tspan>.</tspan><tspan class="quote">”</tspan></text></g></g><g class="literal" transform="matrix(1,0,0,1,25.0102,171.6)"><g class="label"><rect width="24.675000190734863" height="23.600000381469727" rx="3" ry="3"></rect><text x="0" y="0" transform="matrix(1,0,0,1,5,16.8)"><tspan class="quote">“</tspan><tspan>?</tspan><tspan class="quote">”</tspan></text></g></g><g class="literal" transform="matrix(1,0,0,1,26.0102,200.2)"><g class="label"><rect width="22.675000190734863" height="23.600000381469727" rx="3" ry="3"></rect><text x="0" y="0" transform="matrix(1,0,0,1,5,16.8)"><tspan class="quote">“</tspan><tspan>*</tspan><tspan class="quote">”</tspan></text></g></g><g class="literal" transform="matrix(1,0,0,1,24.3414,228.8)"><g class="label"><rect width="26.012500762939453" height="23.600000381469727" rx="3" ry="3"></rect><text x="0" y="0" transform="matrix(1,0,0,1,5,16.8)"><tspan class="quote">“</tspan><tspan>&amp;</tspan><tspan class="quote">”</tspan></text></g></g><g class="literal" transform="matrix(1,0,0,1,26.6789,257.4)"><g class="label"><rect width="21.337499618530273" height="23.600000381469727" rx="3" ry="3"></rect><text x="0" y="0" transform="matrix(1,0,0,1,5,16.8)"><tspan class="quote">“</tspan><tspan>!</tspan><tspan class="quote">”</tspan></text></g></g><g class="literal" transform="matrix(1,0,0,1,24.8414,286)"><g class="label"><rect width="25.012499809265137" height="23.600000381469727" rx="3" ry="3"></rect><text x="0" y="0" transform="matrix(1,0,0,1,5,16.8)"><tspan class="quote">“</tspan><tspan>=</tspan><tspan class="quote">”</tspan></text></g></g><g class="literal" transform="matrix(1,0,0,1,26.6789,314.6)"><g class="label"><rect width="21.337499618530273" height="23.600000381469727" rx="3" ry="3"></rect><text x="0" y="0" transform="matrix(1,0,0,1,5,16.8)"><tspan class="quote">“</tspan><tspan>,</tspan><tspan class="quote">”</tspan></text></g></g></g></g></g></g></g><path d="M10,216.50000019073485H0M1380.8875125,216.50000019073485H1415.8875732421875"></path><circle cx="0" cy="216.50000019073485" r="5"></circle><circle cx="1415.8875732421875" cy="216.50000019073485" r="5"></circle></g></svg>

