
          <svg xmlns="http://www.w3.org/2000/svg" xmlns:cc="http://creativecommons.org/ns#" xmlns:rdf="http://www.w3.org/1999/02/22-rdf-syntax-ns#" version="1.1" width="1452.8875732421875" height="459.2000732421875">
          <text x='20' y='30' fill='blue'>DEPS Statement for Classic Build</text>
            <defs>
              <style type="text/css">svg {
          background-color: #fff; }

        .root text,
        .root tspan {
          font: 12px Arial; }

        .root path {
          fill-opacity: 0;
          stroke-width: 2px;
          stroke: #000; }

        .root circle {
          fill: #6b6659;
          stroke-width: 2px;
          stroke: #000; }

        .anchor text, .any-character text {
          fill: #fff; }

        .anchor rect, .any-character rect {
          fill: #6b6659; }

        .escape text, .charset-escape text, .literal text {
          fill: #000; }

        .escape rect, .charset-escape rect {
          fill: #bada55; }

        .literal rect {
          fill: #dae9e5; }

        .charset .charset-box {
          fill: #cbcbba; }

        .subexp .subexp-label tspan,
        .charset .charset-label tspan,
        .match-fragment .repeat-label tspan {
          font-size: 10px; }

        .repeat-label {
          cursor: help; }

        .subexp .subexp-label tspan,
        .charset .charset-label tspan {
          dominant-baseline: text-after-edge; }

        .subexp .subexp-box {
          stroke: #908c83;
          stroke-dasharray: 6,2;
          stroke-width: 2px;
          fill-opacity: 0; }

        .quote {
          fill: #908c83; }
        </style>
            </defs>
            <metadata>
              <rdf:rdf>
                <cc:license rdf:about="http://creativecommons.org/licenses/by/3.0/">
                  <cc:permits rdf:resource="http://creativecommons.org/ns#Reproduction"></cc:permits>
                  <cc:permits rdf:resource="http://creativecommons.org/ns#Distribution"></cc:permits>
                  <cc:requires rdf:resource="http://creativecommons.org/ns#Notice"></cc:requires>
                  <cc:requires rdf:resource="http://creativecommons.org/ns#Attribution"></cc:requires>
                  <cc:permits rdf:resource="http://creativecommons.org/ns#DerivativeWorks"></cc:permits>
                </cc:license>
              </rdf:rdf>
            </metadata>
          <desc>Created with Snap</desc><g class="root" transform="matrix(1,0,0,1,15,10)"><g class="regexp match" transform="matrix(1,0,0,1,10,0)"><path d="M57.36249923706055,230.80000019073486H82.3625M157.0578125,230.80000019073486H182.0578M204.0578,230.80000019073486H229.0578M303.7531125,230.80000019073486H353.7531M400.5656,230.8000061035156H450.5656M525.2609125,230.80000019073486H550.2609M572.2609,230.80000019073486H597.2609M671.9562125,230.80000019073486H716.9562M763.7687,230.8000015258789H813.7687M888.4640125,230.80000019073486H913.4641M935.4641,230.80000019073486H970.4641M1055.1594125000001,230.8000030517578H1090.1594M1112.1594,230.80000019073486H1137.1594M1211.8547125,230.80000019073486H1236.8547M1258.1921996185304,230.80000019073486H1293.1922"></path><g class="match-fragment literal" transform="matrix(1,0,0,1,0,219)"><g class="label"><rect width="57.36249923706055" height="23.600000381469727" rx="3" ry="3"></rect><text x="0" y="0" transform="matrix(1,0,0,1,5,16.8)"><tspan class="quote">“</tspan><tspan>#DEPS</tspan><tspan class="quote">”</tspan></text></g></g><g class="match-fragment" transform="matrix(1,0,0,1,67.3625,209)"><path d="M0,21.800000190734863q10,0 10,-10v-1.8000001907348633q0,-10 10,-10h64.6953125q10,0 10,10v1.8000001907348633q0,10 10,10M15,21.800000190734863q-10,0 -10,10v1.8000001907348633q0,10 10,10h74.6953125q10,0 10,-10v-1.8000001907348633q0,-10 -10,-10M99.6953125,36.80000019073486l5,-5m-5,5l-5,-5"></path><g class="escape" transform="matrix(1,0,0,1,15,10)"><g class="label"><rect width="74.6953125" height="23.600000381469727" rx="3" ry="3"></rect><text x="0" y="0" transform="matrix(1,0,0,1,5,16.8)"><tspan>white space</tspan></text></g></g></g><g class="match-fragment literal" transform="matrix(1,0,0,1,182.0578,219)"><g class="label"><rect width="22" height="23.600000381469727" rx="3" ry="3"></rect><text x="0" y="0" transform="matrix(1,0,0,1,5,16.8)"><tspan class="quote">“</tspan><tspan>(</tspan><tspan class="quote">”</tspan></text></g></g><g class="match-fragment" transform="matrix(1,0,0,1,214.0578,209)"><path d="M0,21.800000190734863q10,0 10,-10v-1.8000001907348633q0,-10 10,-10h64.6953125q10,0 10,10v1.8000001907348633q0,10 10,10M15,21.800000190734863q-10,0 -10,10v1.8000001907348633q0,10 10,10h74.6953125q10,0 10,-10v-1.8000001907348633q0,-10 -10,-10M99.6953125,36.80000019073486l5,-5m-5,5l-5,-5"></path><g class="escape" transform="matrix(1,0,0,1,15,10)"><g class="label"><rect width="74.6953125" height="23.600000381469727" rx="3" ry="3"></rect><text x="0" y="0" transform="matrix(1,0,0,1,5,16.8)"><tspan>white space</tspan></text></g></g></g><g class="match-fragment subexp" transform="matrix(1,0,0,1,328.7531,85.8)"><rect rx="3" ry="3" class="subexp-box" transform="matrix(1,0,0,1,0,11.2)" width="96.8125" height="256.3999938964844"></rect><text x="0" y="0" class="subexp-label" transform="matrix(1,0,0,1,0,11.2)"><tspan>group #1: Makefile Name</tspan></text><g class="regexp match match-fragment" transform="matrix(1,0,0,1,10,21.2)"><path d="M0,123.80000610351563q10,0 10,-10v-103.80000593662263q0,-10 10,-10h36.8125q10,0 10,10v103.80000593662263q0,10 10,10M15,123.80000610351563q-10,0 -10,10v92.59998795986176q0,10 10,10h46.8125q10,0 10,-10v-92.59998795986176q0,-10 -10,-10M71.8125,138.8000061035156l5,-5m-5,5l-5,-5"></path><g class="charset" transform="matrix(1,0,0,1,15,10)"><rect rx="3" ry="3" class="charset-box" transform="matrix(1,0,0,1,0,11.2)" width="46.8125" height="205.20001220703125"></rect><text x="0" y="0" class="charset-label" transform="matrix(1,0,0,1,0,11.2)"><tspan>One of:</tspan></text><g transform="matrix(1,0,0,1,5,16.2)"><g class="charset-escape" transform="matrix(1,0,0,1,0,0)"><g class="label"><rect width="36.8125" height="23.600000381469727" rx="3" ry="3"></rect><text x="0" y="0" transform="matrix(1,0,0,1,5,16.8)"><tspan>word</tspan></text></g></g><g class="literal" transform="matrix(1,0,0,1,7.4063,28.6)"><g class="label"><rect width="22" height="23.600000381469727" rx="3" ry="3"></rect><text x="0" y="0" transform="matrix(1,0,0,1,5,16.8)"><tspan class="quote">“</tspan><tspan>-</tspan><tspan class="quote">”</tspan></text></g></g><g class="literal" transform="matrix(1,0,0,1,7.7375,57.2)"><g class="label"><rect width="21.337499618530273" height="23.600000381469727" rx="3" ry="3"></rect><text x="0" y="0" transform="matrix(1,0,0,1,5,16.8)"><tspan class="quote">“</tspan><tspan>.</tspan><tspan class="quote">”</tspan></text></g></g><g class="literal" transform="matrix(1,0,0,1,7.7375,85.8)"><g class="label"><rect width="21.337499618530273" height="23.600000381469727" rx="3" ry="3"></rect><text x="0" y="0" transform="matrix(1,0,0,1,5,16.8)"><tspan class="quote">“</tspan><tspan>/</tspan><tspan class="quote">”</tspan></text></g></g><g class="literal" transform="matrix(1,0,0,1,6.0688,114.4)"><g class="label"><rect width="24.675000190734863" height="23.600000381469727" rx="3" ry="3"></rect><text x="0" y="0" transform="matrix(1,0,0,1,5,16.8)"><tspan class="quote">“</tspan><tspan>$</tspan><tspan class="quote">”</tspan></text></g></g><g class="literal" transform="matrix(1,0,0,1,7.4,143)"><g class="label"><rect width="22.012499809265137" height="23.600000381469727" rx="3" ry="3"></rect><text x="0" y="0" transform="matrix(1,0,0,1,5,16.8)"><tspan class="quote">“</tspan><tspan>{</tspan><tspan class="quote">”</tspan></text></g></g><g class="literal" transform="matrix(1,0,0,1,7.4,171.6)"><g class="label"><rect width="22.012499809265137" height="23.600000381469727" rx="3" ry="3"></rect><text x="0" y="0" transform="matrix(1,0,0,1,5,16.8)"><tspan class="quote">“</tspan><tspan>}</tspan><tspan class="quote">”</tspan></text></g></g></g></g></g></g><g class="match-fragment" transform="matrix(1,0,0,1,435.5656,209)"><path d="M0,21.800000190734863q10,0 10,-10v-1.8000001907348633q0,-10 10,-10h64.6953125q10,0 10,10v1.8000001907348633q0,10 10,10M15,21.800000190734863q-10,0 -10,10v1.8000001907348633q0,10 10,10h74.6953125q10,0 10,-10v-1.8000001907348633q0,-10 -10,-10M99.6953125,36.80000019073486l5,-5m-5,5l-5,-5"></path><g class="escape" transform="matrix(1,0,0,1,15,10)"><g class="label"><rect width="74.6953125" height="23.600000381469727" rx="3" ry="3"></rect><text x="0" y="0" transform="matrix(1,0,0,1,5,16.8)"><tspan>white space</tspan></text></g></g></g><g class="match-fragment literal" transform="matrix(1,0,0,1,550.2609,219)"><g class="label"><rect width="22" height="23.600000381469727" rx="3" ry="3"></rect><text x="0" y="0" transform="matrix(1,0,0,1,5,16.8)"><tspan class="quote">“</tspan><tspan>)</tspan><tspan class="quote">”</tspan></text></g></g><g class="match-fragment" transform="matrix(1,0,0,1,582.2609,209)"><path d="M0,21.800000190734863q10,0 10,-10v-1.8000001907348633q0,-10 10,-10h64.6953125q10,0 10,10v1.8000001907348633q0,10 10,10M15,21.800000190734863q-10,0 -10,10v1.8000001907348633q0,10 10,10h74.6953125q10,0 10,-10v-1.8000001907348633q0,-10 -10,-10M99.6953125,36.80000019073486l5,-5m-5,5l-5,-5"></path><g class="escape" transform="matrix(1,0,0,1,15,10)"><g class="label"><rect width="74.6953125" height="23.600000381469727" rx="3" ry="3"></rect><text x="0" y="0" transform="matrix(1,0,0,1,5,16.8)"><tspan>white space</tspan></text></g></g></g><g class="match-fragment subexp" transform="matrix(1,0,0,1,696.9562,153)"><rect rx="3" ry="3" class="subexp-box" transform="matrix(1,0,0,1,0,11.2)" width="91.8125" height="132"></rect><text x="0" y="0" class="subexp-label" transform="matrix(1,0,0,1,0,11.2)"><tspan>group #2: Package Name</tspan></text><g class="regexp match match-fragment" transform="matrix(1,0,0,1,10,21.2)"><path d="M10,56.60000152587891q-10,0 -10,10v35.39999864101409q0,10 10,10h46.8125q10,0 10,-10v-35.39999864101409q0,-10 -10,-10M66.8125,71.60000152587891l5,-5m-5,5l-5,-5"></path><g class="charset" transform="matrix(1,0,0,1,10,0)"><rect rx="3" ry="3" class="charset-box" transform="matrix(1,0,0,1,0,11.2)" width="46.8125" height="90.80000305175781"></rect><text x="0" y="0" class="charset-label" transform="matrix(1,0,0,1,0,11.2)"><tspan>One of:</tspan></text><g transform="matrix(1,0,0,1,5,16.2)"><g class="charset-escape" transform="matrix(1,0,0,1,0,0)"><g class="label"><rect width="36.8125" height="23.600000381469727" rx="3" ry="3"></rect><text x="0" y="0" transform="matrix(1,0,0,1,5,16.8)"><tspan>word</tspan></text></g></g><g class="literal" transform="matrix(1,0,0,1,7.4063,28.6)"><g class="label"><rect width="22" height="23.600000381469727" rx="3" ry="3"></rect><text x="0" y="0" transform="matrix(1,0,0,1,5,16.8)"><tspan class="quote">“</tspan><tspan>-</tspan><tspan class="quote">”</tspan></text></g></g><g class="literal" transform="matrix(1,0,0,1,7.7375,57.2)"><g class="label"><rect width="21.337499618530273" height="23.600000381469727" rx="3" ry="3"></rect><text x="0" y="0" transform="matrix(1,0,0,1,5,16.8)"><tspan class="quote">“</tspan><tspan>.</tspan><tspan class="quote">”</tspan></text></g></g></g></g></g></g><g class="match-fragment" transform="matrix(1,0,0,1,798.7687,209)"><path d="M0,21.800000190734863q10,0 10,-10v-1.8000001907348633q0,-10 10,-10h64.6953125q10,0 10,10v1.8000001907348633q0,10 10,10M15,21.800000190734863q-10,0 -10,10v1.8000001907348633q0,10 10,10h74.6953125q10,0 10,-10v-1.8000001907348633q0,-10 -10,-10M99.6953125,36.80000019073486l5,-5m-5,5l-5,-5"></path><g class="escape" transform="matrix(1,0,0,1,15,10)"><g class="label"><rect width="74.6953125" height="23.600000381469727" rx="3" ry="3"></rect><text x="0" y="0" transform="matrix(1,0,0,1,5,16.8)"><tspan>white space</tspan></text></g></g></g><g class="match-fragment literal" transform="matrix(1,0,0,1,913.4641,219)"><g class="label"><rect width="22" height="23.600000381469727" rx="3" ry="3"></rect><text x="0" y="0" transform="matrix(1,0,0,1,5,16.8)"><tspan class="quote">“</tspan><tspan>(</tspan><tspan class="quote">”</tspan></text></g></g><g class="match-fragment subexp" transform="matrix(1,0,0,1,945.4641,100.1)"><rect rx="3" ry="3" class="subexp-box" transform="matrix(1,0,0,1,0,11.2)" width="134.6953125" height="227.8000030517578"></rect><text x="0" y="0" class="subexp-label" transform="matrix(1,0,0,1,0,11.2)"><tspan>group #3: Targets Names</tspan></text><g class="regexp match match-fragment" transform="matrix(1,0,0,1,10,21.2)"><path d="M0,109.50000305175782q10,0 10,-10v-89.50000288486481q0,-10 10,-10h74.6953125q10,0 10,10v89.50000288486481q0,10 10,10M15,109.50000305175782q-10,0 -10,10v78.30000016689301q0,10 10,10h84.6953125q10,0 10,-10v-78.30000016689301q0,-10 -10,-10M109.6953125,124.50000305175782l5,-5m-5,5l-5,-5"></path><g class="charset" transform="matrix(1,0,0,1,15,10)"><rect rx="3" ry="3" class="charset-box" transform="matrix(1,0,0,1,0,11.2)" width="84.6953125" height="176.60000610351562"></rect><text x="0" y="0" class="charset-label" transform="matrix(1,0,0,1,0,11.2)"><tspan>One of:</tspan></text><g transform="matrix(1,0,0,1,5,16.2)"><g class="charset-escape" transform="matrix(1,0,0,1,0,0)"><g class="label"><rect width="74.6953125" height="23.600000381469727" rx="3" ry="3"></rect><text x="0" y="0" transform="matrix(1,0,0,1,5,16.8)"><tspan>white space</tspan></text></g></g><g class="charset-escape" transform="matrix(1,0,0,1,18.9414,28.6)"><g class="label"><rect width="36.8125" height="23.600000381469727" rx="3" ry="3"></rect><text x="0" y="0" transform="matrix(1,0,0,1,5,16.8)"><tspan>word</tspan></text></g></g><g class="literal" transform="matrix(1,0,0,1,26.3477,57.2)"><g class="label"><rect width="22" height="23.600000381469727" rx="3" ry="3"></rect><text x="0" y="0" transform="matrix(1,0,0,1,5,16.8)"><tspan class="quote">“</tspan><tspan>-</tspan><tspan class="quote">”</tspan></text></g></g><g class="literal" transform="matrix(1,0,0,1,26.6789,85.8)"><g class="label"><rect width="21.337499618530273" height="23.600000381469727" rx="3" ry="3"></rect><text x="0" y="0" transform="matrix(1,0,0,1,5,16.8)"><tspan class="quote">“</tspan><tspan>.</tspan><tspan class="quote">”</tspan></text></g></g><g class="literal" transform="matrix(1,0,0,1,23.0102,114.4)"><g class="label"><rect width="28.674999237060547" height="23.600000381469727" rx="3" ry="3"></rect><text x="0" y="0" transform="matrix(1,0,0,1,5,16.8)"><tspan class="quote">“</tspan><tspan>%</tspan><tspan class="quote">”</tspan></text></g></g><g class="literal" transform="matrix(1,0,0,1,26.6789,143)"><g class="label"><rect width="21.337499618530273" height="23.600000381469727" rx="3" ry="3"></rect><text x="0" y="0" transform="matrix(1,0,0,1,5,16.8)"><tspan class="quote">“</tspan><tspan>:</tspan><tspan class="quote">”</tspan></text></g></g></g></g></g></g><g class="match-fragment literal" transform="matrix(1,0,0,1,1090.1594,219)"><g class="label"><rect width="22" height="23.600000381469727" rx="3" ry="3"></rect><text x="0" y="0" transform="matrix(1,0,0,1,5,16.8)"><tspan class="quote">“</tspan><tspan>)</tspan><tspan class="quote">”</tspan></text></g></g><g class="match-fragment" transform="matrix(1,0,0,1,1122.1594,209)"><path d="M0,21.800000190734863q10,0 10,-10v-1.8000001907348633q0,-10 10,-10h64.6953125q10,0 10,10v1.8000001907348633q0,10 10,10M15,21.800000190734863q-10,0 -10,10v1.8000001907348633q0,10 10,10h74.6953125q10,0 10,-10v-1.8000001907348633q0,-10 -10,-10M99.6953125,36.80000019073486l5,-5m-5,5l-5,-5"></path><g class="escape" transform="matrix(1,0,0,1,15,10)"><g class="label"><rect width="74.6953125" height="23.600000381469727" rx="3" ry="3"></rect><text x="0" y="0" transform="matrix(1,0,0,1,5,16.8)"><tspan>white space</tspan></text></g></g></g><g class="match-fragment literal" transform="matrix(1,0,0,1,1236.8547,219)"><g class="label"><rect width="21.337499618530273" height="23.600000381469727" rx="3" ry="3"></rect><text x="0" y="0" transform="matrix(1,0,0,1,5,16.8)"><tspan class="quote">“</tspan><tspan>:</tspan><tspan class="quote">”</tspan></text></g></g><g class="match-fragment subexp" transform="matrix(1,0,0,1,1268.1922,0)"><rect rx="3" ry="3" class="subexp-box" transform="matrix(1,0,0,1,0,11.2)" width="134.6953125" height="428.0000305175781"></rect><text x="0" y="0" class="subexp-label" transform="matrix(1,0,0,1,0,11.2)"><tspan>group #4:Depend Names</tspan></text><g class="regexp match match-fragment" transform="matrix(1,0,0,1,10,21.2)"><path d="M0,209.60000915527343q10,0 10,-10v-189.6000089883804q0,-10 10,-10h74.6953125q10,0 10,10v189.6000089883804q0,10 10,10M15,209.60000915527343q-10,0 -10,10v178.40002152919772q0,10 10,10h84.6953125q10,0 10,-10v-178.40002152919772q0,-10 -10,-10M109.6953125,224.60000915527343l5,-5m-5,5l-5,-5"></path><g class="charset" transform="matrix(1,0,0,1,15,10)"><rect rx="3" ry="3" class="charset-box" transform="matrix(1,0,0,1,0,11.2)" width="84.6953125" height="376.8000183105469"></rect><text x="0" y="0" class="charset-label" transform="matrix(1,0,0,1,0,11.2)"><tspan>One of:</tspan></text><g transform="matrix(1,0,0,1,5,16.2)"><g class="charset-escape" transform="matrix(1,0,0,1,0,0)"><g class="label"><rect width="74.6953125" height="23.600000381469727" rx="3" ry="3"></rect><text x="0" y="0" transform="matrix(1,0,0,1,5,16.8)"><tspan>white space</tspan></text></g></g><g class="charset-escape" transform="matrix(1,0,0,1,18.9414,28.6)"><g class="label"><rect width="36.8125" height="23.600000381469727" rx="3" ry="3"></rect><text x="0" y="0" transform="matrix(1,0,0,1,5,16.8)"><tspan>word</tspan></text></g></g><g class="literal" transform="matrix(1,0,0,1,26.6789,57.2)"><g class="label"><rect width="21.337499618530273" height="23.600000381469727" rx="3" ry="3"></rect><text x="0" y="0" transform="matrix(1,0,0,1,5,16.8)"><tspan class="quote">“</tspan><tspan>\</tspan><tspan class="quote">”</tspan></text></g></g><g class="literal" transform="matrix(1,0,0,1,26.7852,85.8)"><g class="label"><rect width="21.125" height="23.600000381469727" rx="3" ry="3"></rect><text x="0" y="0" transform="matrix(1,0,0,1,5,16.8)"><tspan class="quote">“</tspan><tspan>|</tspan><tspan class="quote">”</tspan></text></g></g><g class="literal" transform="matrix(1,0,0,1,26.3477,114.4)"><g class="label"><rect width="22" height="23.600000381469727" rx="3" ry="3"></rect><text x="0" y="0" transform="matrix(1,0,0,1,5,16.8)"><tspan class="quote">“</tspan><tspan>-</tspan><tspan class="quote">”</tspan></text></g></g><g class="literal" transform="matrix(1,0,0,1,26.6789,143)"><g class="label"><rect width="21.337499618530273" height="23.600000381469727" rx="3" ry="3"></rect><text x="0" y="0" transform="matrix(1,0,0,1,5,16.8)"><tspan class="quote">“</tspan><tspan>.</tspan><tspan class="quote">”</tspan></text></g></g><g class="literal" transform="matrix(1,0,0,1,25.0102,171.6)"><g class="label"><rect width="24.675000190734863" height="23.600000381469727" rx="3" ry="3"></rect><text x="0" y="0" transform="matrix(1,0,0,1,5,16.8)"><tspan class="quote">“</tspan><tspan>?</tspan><tspan class="quote">”</tspan></text></g></g><g class="literal" transform="matrix(1,0,0,1,26.0102,200.2)"><g class="label"><rect width="22.675000190734863" height="23.600000381469727" rx="3" ry="3"></rect><text x="0" y="0" transform="matrix(1,0,0,1,5,16.8)"><tspan class="quote">“</tspan><tspan>*</tspan><tspan class="quote">”</tspan></text></g></g><g class="literal" transform="matrix(1,0,0,1,24.3414,228.8)"><g class="label"><rect width="26.012500762939453" height="23.600000381469727" rx="3" ry="3"></rect><text x="0" y="0" transform="matrix(1,0,0,1,5,16.8)"><tspan class="quote">“</tspan><tspan>&amp;</tspan><tspan class="quote">”</tspan></text></g></g><g class="literal" transform="matrix(1,0,0,1,26.6789,257.4)"><g class="label"><rect width="21.337499618530273" height="23.600000381469727" rx="3" ry="3"></rect><text x="0" y="0" transform="matrix(1,0,0,1,5,16.8)"><tspan class="quote">“</tspan><tspan>!</tspan><tspan class="quote">”</tspan></text></g></g><g class="literal" transform="matrix(1,0,0,1,24.8414,286)"><g class="label"><rect width="25.012499809265137" height="23.600000381469727" rx="3" ry="3"></rect><text x="0" y="0" transform="matrix(1,0,0,1,5,16.8)"><tspan class="quote">“</tspan><tspan>=</tspan><tspan class="quote">”</tspan></text></g></g><g class="literal" transform="matrix(1,0,0,1,26.6789,314.6)"><g class="label"><rect width="21.337499618530273" height="23.600000381469727" rx="3" ry="3"></rect><text x="0" y="0" transform="matrix(1,0,0,1,5,16.8)"><tspan class="quote">“</tspan><tspan>,</tspan><tspan class="quote">”</tspan></text></g></g><g class="literal" transform="matrix(1,0,0,1,22.2539,343.2)"><g class="label"><rect width="30.1875" height="23.600000381469727" rx="3" ry="3"></rect><text x="0" y="0" transform="matrix(1,0,0,1,5,16.8)"><tspan class="quote">“</tspan><tspan>@</tspan><tspan class="quote">”</tspan></text></g></g></g></g></g></g></g><path d="M10,230.80000019073486H0M1387.8875125,230.80000019073486H1422.8875732421875"></path><circle cx="0" cy="230.80000019073486" r="5"></circle><circle cx="1422.8875732421875" cy="230.80000019073486" r="5"></circle></g></svg>

